<svg width="168" height="36" viewBox="0 0 168 36" fill="none" xmlns="http://www.w3.org/2000/svg">
<g clip-path="url(#clip0_548_293)">
<path d="M76.5358 12.7451C76.5789 12.8931 76.6 13.1941 76.2147 13.1941H74.4779C74.3833 13.203 74.2884 13.1799 74.2101 13.1288C74.1317 13.0778 74.0748 13.0021 74.0494 12.9151L73.5558 10.7771C73.4915 10.5631 73.4505 10.4771 73.2779 10.4771H70.1042C69.8694 10.4771 69.8694 10.6041 69.8042 10.7541C69.72 11.1821 69.4168 12.4871 69.3105 12.9141C69.2874 12.9985 69.2339 13.0727 69.1593 13.1236C69.0847 13.1746 68.9937 13.1991 68.9021 13.1931H67.2526C66.8452 13.1931 66.8231 13.0001 66.8873 12.7651L70.0179 0.296054C70.0412 0.202274 70.1 0.119903 70.183 0.0645937C70.2661 0.00928428 70.3676 -0.0151081 70.4684 -0.00394494H72.9137C73.1063 -0.00394494 73.2779 -0.00394505 73.3221 0.274055L76.5358 12.7451ZM72.2473 5.28105L71.7315 2.82006C71.7115 2.71206 71.6042 2.69206 71.581 2.82006L71.0894 5.23706L70.4242 8.29505C70.4031 8.44505 70.4031 8.48606 70.5737 8.48606H72.8042C72.9316 8.48606 72.9968 8.44406 72.9315 8.27306L72.2473 5.28105Z" fill="#CC1B34"/>
<path d="M77.9495 13.1971C77.8964 13.2041 77.8423 13.1998 77.7912 13.1843C77.7401 13.1688 77.6934 13.1427 77.6544 13.1077C77.6154 13.0728 77.5851 13.03 77.5659 12.9824C77.5466 12.9349 77.5389 12.8839 77.5432 12.8331V0.366093C77.5387 0.315246 77.5463 0.264093 77.5655 0.216431C77.5847 0.168769 77.6149 0.125817 77.6539 0.0907596C77.693 0.0557026 77.7398 0.0294425 77.7909 0.0139201C77.8421 -0.00160229 77.8963 -0.0059889 77.9495 0.0010913H82.2811C84.98 0.0010913 86.3105 1.50109 86.3105 3.93609V9.19809C86.3105 11.6791 84.96 13.1981 82.3453 13.1981L77.9495 13.1971ZM82.0874 11.0371C83.3505 11.0371 83.8895 10.3311 83.8895 9.19709V3.95709C83.9285 3.71103 83.9071 3.45972 83.8268 3.22285C83.7466 2.98597 83.6097 2.76996 83.4269 2.59174C83.2441 2.41352 83.0203 2.27793 82.7731 2.19558C82.5259 2.11324 82.2621 2.08637 82.0021 2.11709H80.3516C80.0526 2.11709 79.9863 2.26809 79.9863 2.48109V10.6921C79.9863 10.9491 80.0716 11.0361 80.3284 11.0361L82.0874 11.0371Z" fill="#CC1B34"/>
<path d="M88.4558 13.1972C88.219 13.1972 88.0684 13.1112 88.0684 12.8762V0.323223C88.0684 0.0872231 88.2179 0.0012207 88.4558 0.0012207H90.1263C90.3632 0.0012207 90.5137 0.0872231 90.5137 0.323223V12.8542C90.5137 13.1122 90.3863 13.1982 90.1263 13.1982L88.4558 13.1972Z" fill="#CC1B34"/>
<path d="M100.141 2.11802H97.6147C97.3579 2.11802 97.2726 2.22602 97.2726 2.39602L97.2463 12.85C97.2463 13.106 97.1168 13.192 96.859 13.192H95.2074C94.9726 13.192 94.8232 13.106 94.8232 12.869L94.8453 2.41202C94.8453 2.22102 94.8021 2.11202 94.5242 2.11202H92.1242C91.8642 2.11202 91.7589 2.00402 91.7589 1.72502V0.365024C91.7589 0.129024 91.8642 -0.000976562 92.1242 -0.000976562H100.142C100.353 -0.000976562 100.458 0.128023 100.458 0.343023V1.73102C100.458 1.96702 100.393 2.11802 100.141 2.11802Z" fill="#CC1B34"/>
<path d="M103.875 0.342L105.805 5.542C105.891 5.628 105.954 5.628 105.997 5.565C106.64 3.875 107.326 2.075 107.926 0.385C108.055 0.106 108.161 0 108.592 0H110.178C110.629 0 110.629 0.234 110.543 0.428L107.241 8.042C107.15 8.21448 107.106 8.40604 107.113 8.599V12.811C107.12 12.8617 107.115 12.9133 107.099 12.9619C107.082 13.0106 107.054 13.0551 107.017 13.0922C106.98 13.1293 106.935 13.1579 106.884 13.1761C106.834 13.1942 106.78 13.2014 106.726 13.197H105.074C105.022 13.2035 104.969 13.1985 104.919 13.1826C104.869 13.1666 104.824 13.1401 104.787 13.1049C104.749 13.0698 104.721 13.027 104.704 12.9799C104.687 12.9328 104.681 12.8825 104.687 12.833V8.555C104.691 8.3927 104.655 8.23178 104.582 8.085L101.259 0.449C101.175 0.234 101.154 0 101.559 0H103.249C103.573 0 103.743 0.043 103.872 0.342" fill="#CC1B34"/>
<path d="M118.62 12.7452C118.664 12.8932 118.684 13.1942 118.304 13.1942H116.566C116.472 13.2029 116.377 13.1797 116.299 13.1286C116.221 13.0776 116.164 13.002 116.139 12.9152L115.645 10.7772C115.581 10.5632 115.54 10.4772 115.366 10.4772H112.195C111.957 10.4772 111.957 10.6042 111.893 10.7542C111.806 11.1822 111.506 12.4872 111.4 12.9142C111.377 12.9984 111.323 13.0723 111.249 13.1232C111.175 13.1741 111.084 13.1988 110.993 13.1932H109.342C108.933 13.1932 108.913 13.0002 108.976 12.7652L112.106 0.296203C112.13 0.202532 112.189 0.120292 112.272 0.0650173C112.355 0.00974303 112.456 -0.0147361 112.557 -0.00379602H115.001C115.194 -0.00379602 115.365 -0.00379613 115.408 0.274204L118.62 12.7452ZM114.336 5.28521L113.822 2.8242C113.802 2.7162 113.694 2.6962 113.672 2.8242L113.178 5.2452L112.513 8.3032C112.492 8.4532 112.492 8.49421 112.664 8.49421H114.894C115.02 8.49421 115.086 8.4522 115.02 8.2812L114.336 5.28521Z" fill="#CC1B34"/>
<path d="M131.06 6.05401C131.049 6.06229 131.041 6.07308 131.036 6.08532C131.031 6.09755 131.03 6.11081 131.032 6.12376C131.034 6.13671 131.04 6.1489 131.048 6.15912C131.057 6.16934 131.068 6.17723 131.081 6.18201C131.662 6.45726 132.148 6.88611 132.479 7.41703C132.81 7.94796 132.973 8.55839 132.947 9.17501C132.999 9.70234 132.93 10.234 132.746 10.7338C132.562 11.2337 132.266 11.6899 131.88 12.0715C131.493 12.4531 131.024 12.751 130.506 12.9451C129.987 13.1391 129.43 13.2247 128.874 13.196H124.306C124.254 13.2027 124.201 13.1979 124.152 13.1821C124.102 13.1662 124.057 13.1398 124.019 13.1047C123.982 13.0696 123.954 13.0269 123.936 12.9798C123.919 12.9327 123.914 12.8825 123.92 12.833V0.365014C123.913 0.315378 123.919 0.264928 123.936 0.21757C123.953 0.170212 123.981 0.12722 124.018 0.0919251C124.056 0.0566303 124.101 0.029981 124.151 0.0140423C124.201 -0.00189639 124.254 -0.00669703 124.306 1.37514e-05H128.638C131.02 1.37514e-05 132.518 1.21901 132.518 3.48601C132.49 3.98964 132.344 4.48106 132.092 4.92492C131.84 5.36878 131.488 5.75405 131.06 6.05301M128.573 5.17401C128.784 5.17475 128.994 5.13307 129.187 5.0517C129.381 4.97032 129.554 4.85109 129.695 4.70179C129.837 4.55248 129.944 4.37647 130.009 4.18524C130.074 3.99401 130.096 3.79186 130.074 3.59201C130.093 3.39451 130.066 3.19538 129.996 3.00873C129.925 2.82209 129.812 2.65248 129.665 2.51194C129.517 2.37139 129.339 2.26334 129.143 2.19544C128.947 2.12754 128.737 2.10145 128.529 2.11901H126.6C126.406 2.11901 126.343 2.22601 126.343 2.39601V4.83901C126.343 5.07301 126.429 5.17901 126.621 5.17901L128.573 5.17401ZM128.831 11.036C129.067 11.0273 129.298 10.9721 129.511 10.874C129.724 10.7758 129.913 10.6368 130.066 10.4658C130.219 10.2947 130.333 10.0953 130.401 9.88018C130.469 9.66506 130.489 9.4389 130.46 9.21601C130.496 8.96965 130.475 8.71882 130.4 8.48066C130.325 8.24249 130.196 8.02259 130.023 7.83597C129.85 7.64934 129.636 7.50038 129.397 7.39926C129.158 7.29814 128.899 7.24723 128.637 7.25001H126.664C126.407 7.25001 126.348 7.35701 126.348 7.57001V10.756C126.348 10.969 126.413 11.036 126.664 11.036H128.831Z" fill="#CC1B34"/>
<path d="M134.641 13.1972C134.404 13.1972 134.255 13.1112 134.255 12.8762V0.323223C134.255 0.0872231 134.404 0.0012207 134.641 0.0012207H136.313C136.548 0.0012207 136.699 0.0872231 136.699 0.323223V12.8542C136.699 13.1122 136.571 13.1982 136.313 13.1982L134.641 13.1972Z" fill="#CC1B34"/>
<path d="M143.279 0.000218727C143.825 -0.0545297 144.378 0.00631776 144.896 0.178392C145.415 0.350467 145.887 0.629499 146.279 0.995455C146.67 1.36141 146.972 1.80521 147.161 2.29499C147.351 2.78477 147.424 3.30838 147.376 3.82822C147.336 4.53648 147.149 5.23018 146.824 5.8691C146.5 6.50802 146.046 7.07944 145.487 7.55022C145.441 7.58979 145.411 7.64386 145.403 7.7026C145.395 7.76134 145.41 7.82082 145.444 7.87022C145.465 7.91322 146.539 10.2442 147.717 12.7252C147.752 12.7728 147.772 12.8292 147.774 12.8874C147.776 12.9455 147.76 13.003 147.729 13.0529C147.697 13.1027 147.651 13.1427 147.596 13.1679C147.54 13.1932 147.479 13.2027 147.418 13.1952H145.787C145.208 13.1952 145.102 13.0052 144.974 12.7252L143.002 8.30022C142.99 8.24055 142.954 8.18751 142.902 8.15172C142.851 8.11593 142.787 8.10003 142.723 8.10722H141.306C141.179 8.10722 141.115 8.17322 141.115 8.34322V12.8562C141.115 13.1142 140.963 13.1972 140.707 13.1972H139.077C138.842 13.1972 138.693 13.1132 138.693 12.8762V0.365219C138.693 0.128219 138.778 0.000218727 139.036 0.000218727H143.279ZM143.472 5.98822C143.624 5.98119 143.772 5.93712 143.902 5.86022C144.197 5.62546 144.439 5.33582 144.612 5.00908C144.786 4.68235 144.887 4.32542 144.909 3.96022C144.94 3.7211 144.915 3.47855 144.835 3.24975C144.756 3.02094 144.625 2.81146 144.451 2.63612C144.277 2.46078 144.065 2.32387 143.829 2.23506C143.594 2.14626 143.34 2.10774 143.087 2.12222H141.437C141.179 2.12222 141.115 2.20622 141.115 2.44222V5.69022C141.115 5.88122 141.158 5.99022 141.414 5.99022L143.472 5.98822Z" fill="#CC1B34"/>
<path d="M156.358 11.0362C156.549 11.0362 156.7 11.1432 156.7 11.4002V12.8102C156.7 13.0682 156.595 13.1952 156.378 13.1952H149.175C149.123 13.2019 149.07 13.1971 149.02 13.1812C148.97 13.1653 148.925 13.1388 148.887 13.1036C148.85 13.0684 148.822 13.0256 148.804 12.9783C148.787 12.9311 148.782 12.8808 148.788 12.8312V0.323219C148.788 0.0872193 148.919 0.0012207 149.155 0.0012207H150.825C151.061 0.0012207 151.209 0.0662199 151.209 0.30122V10.7152C151.209 10.9302 151.209 11.0362 151.488 11.0362H156.358Z" fill="#CC1B34"/>
<path d="M167.123 12.7452C167.166 12.8932 167.187 13.1942 166.807 13.1942H165.069C164.975 13.2029 164.88 13.1797 164.802 13.1286C164.724 13.0776 164.667 13.002 164.642 12.9152L164.147 10.7772C164.083 10.5632 164.042 10.4772 163.868 10.4772H160.697C160.461 10.4772 160.461 10.6042 160.395 10.7542C160.311 11.1822 160.011 12.4872 159.903 12.9142C159.88 12.9989 159.826 13.0731 159.752 13.1241C159.677 13.1751 159.585 13.1995 159.494 13.1932H157.846C157.438 13.1932 157.417 13.0002 157.482 12.7652L160.611 0.296203C160.634 0.202532 160.693 0.120292 160.776 0.0650173C160.859 0.00974303 160.96 -0.0147361 161.061 -0.00379602H163.506C163.7 -0.00379602 163.871 -0.00379613 163.915 0.274204L167.123 12.7452ZM162.835 5.2812L162.321 2.82021C162.299 2.71221 162.193 2.69221 162.171 2.82021L161.679 5.23721L161.015 8.2952C160.992 8.4452 160.992 8.48621 161.163 8.48621H163.394C163.521 8.48621 163.585 8.4442 163.521 8.2732L162.835 5.2812Z" fill="#CC1B34"/>
<path d="M66.8589 30.6232V22.2852C66.8589 19.0632 69.5326 16.9262 73.1842 16.9262C74.3527 16.8536 75.5213 17.0674 76.5779 17.5472C77.6344 18.027 78.5435 18.7567 79.2179 19.6662C79.274 19.7232 79.315 19.7922 79.3375 19.8673C79.3599 19.9424 79.3632 20.0215 79.3471 20.0981C79.3309 20.1746 79.2958 20.2464 79.2446 20.3075C79.1933 20.3685 79.1275 20.4171 79.0526 20.4492L77.2905 21.6792C77.2162 21.719 77.1344 21.7443 77.0497 21.7537C76.965 21.7631 76.8792 21.7564 76.7973 21.7339C76.7154 21.7115 76.639 21.6738 76.5726 21.623C76.5062 21.5722 76.4511 21.5094 76.4105 21.4382C76.0632 20.9658 75.5993 20.5815 75.0594 20.3189C74.5195 20.0564 73.9201 19.9236 73.3137 19.9322C72.9562 19.9013 72.5958 19.9427 72.2564 20.0536C71.917 20.1646 71.6061 20.3426 71.3444 20.576C71.0826 20.8093 70.8759 21.0928 70.7378 21.4075C70.5997 21.7223 70.5333 22.0613 70.5431 22.4022V30.6232C70.5473 30.9567 70.6257 31.2856 70.773 31.5884C70.9204 31.8911 71.1334 32.1609 71.3982 32.3799C71.663 32.599 71.9735 32.7624 72.3094 32.8595C72.6453 32.9565 72.999 32.9851 73.3473 32.9432C73.929 32.9218 74.4994 32.7847 75.0218 32.5408C75.5441 32.2969 76.0068 31.9516 76.38 31.5272C76.6073 31.3152 76.801 30.9852 77.2221 31.2272L79.1779 32.3402C79.2472 32.3688 79.3095 32.4108 79.3609 32.4635C79.4122 32.5163 79.4514 32.5786 79.4759 32.6465C79.5005 32.7144 79.5099 32.7865 79.5035 32.8581C79.4971 32.9296 79.4751 32.9992 79.4389 33.0622C78.7633 34.0112 77.8416 34.7787 76.7628 35.2908C75.684 35.8028 74.4844 36.0419 73.28 35.9852C69.4663 35.9852 66.8589 33.9082 66.8589 30.6232Z" fill="#CC1B34"/>
<path d="M96.1684 35.1701C96.2326 35.3821 96.2674 35.8051 95.681 35.8051H93.0389C92.8994 35.8203 92.7586 35.7896 92.64 35.7181C92.5214 35.6466 92.4322 35.5386 92.3874 35.4121L91.6379 32.4011C91.5389 32.1011 91.4747 31.9781 91.2168 31.9781H86.3958C86.0347 31.9781 86.0347 32.1601 85.9358 32.3701C85.8052 32.9701 85.3505 34.8091 85.1852 35.4121C85.1439 35.5345 85.06 35.64 84.9474 35.7114C84.8348 35.7827 84.7001 35.8158 84.5653 35.8051H82.0547C81.4368 35.8051 81.4042 35.5331 81.5021 35.2051L86.261 17.6471C86.304 17.5109 86.3964 17.3936 86.522 17.3161C86.6475 17.2386 86.7978 17.206 86.9463 17.2241H90.6631C90.9568 17.2241 91.2158 17.2241 91.281 17.6151L96.1684 35.1701ZM89.6495 24.6611L88.8663 21.1971C88.8347 21.0471 88.6705 21.0171 88.6368 21.1971L87.8884 24.5971L86.88 28.9081C86.8474 29.1191 86.8474 29.1781 87.1074 29.1781H90.4979C90.6926 29.1781 90.7916 29.1191 90.6926 28.8781L89.6495 24.6611Z" fill="#CC1B34"/>
<path d="M106.08 28.2162H103.472C103.146 28.2162 103.08 28.3652 103.08 28.5762V35.3232C103.08 35.6552 102.885 35.8062 102.494 35.8062H99.9832C99.5905 35.8062 99.3632 35.6552 99.3632 35.3232V17.6742C99.3632 17.3442 99.5895 17.2222 99.9832 17.2222H106.047C109.926 17.2222 112.339 19.5422 112.339 22.7942C112.339 25.8942 109.699 28.2162 106.08 28.2162ZM106.048 20.2042H103.504C103.147 20.2042 103.049 20.3842 103.049 20.6552V24.7812C103.049 25.1122 103.18 25.2332 103.504 25.2332H106.047C106.397 25.2499 106.745 25.1966 107.071 25.0765C107.397 24.9565 107.693 24.7725 107.939 24.5366C108.185 24.3007 108.376 24.0182 108.499 23.7074C108.623 23.3966 108.676 23.0647 108.655 22.7332C108.671 22.4013 108.616 22.0698 108.491 21.7593C108.367 21.4488 108.176 21.1661 107.932 20.9288C107.687 20.6915 107.393 20.5047 107.069 20.3802C106.745 20.2557 106.397 20.1961 106.047 20.2052" fill="#CC1B34"/>
<path d="M116.709 35.8062C116.352 35.8062 116.121 35.6852 116.121 35.3532V17.6722C116.121 17.3422 116.351 17.2202 116.709 17.2202H119.253C119.609 17.2202 119.84 17.3422 119.84 17.6722V35.3212C119.84 35.6832 119.644 35.8042 119.253 35.8042L116.709 35.8062Z" fill="#CC1B34"/>
<path d="M136.173 20.2021H132.326C131.935 20.2021 131.8 20.3521 131.8 20.5921L131.767 35.3201C131.767 35.6821 131.572 35.8031 131.179 35.8031H128.669C128.312 35.8031 128.085 35.6821 128.085 35.3501L128.116 20.6231C128.116 20.3511 128.051 20.2011 127.628 20.2011H123.976C123.584 20.2011 123.422 20.0511 123.422 19.6591V17.7301C123.422 17.4001 123.584 17.2181 123.976 17.2181H136.168C136.236 17.2118 136.304 17.2201 136.368 17.2424C136.432 17.2647 136.489 17.3004 136.537 17.3469C136.584 17.3934 136.619 17.4493 136.641 17.5107C136.662 17.572 136.668 17.6371 136.659 17.7011V19.6591C136.659 19.9901 136.56 20.2011 136.168 20.2011" fill="#CC1B34"/>
<path d="M151.789 35.1702C151.855 35.3822 151.888 35.8052 151.302 35.8052H148.66C148.521 35.8199 148.38 35.7889 148.262 35.7175C148.143 35.646 148.054 35.5384 148.008 35.4122L147.259 32.4012C147.161 32.1012 147.096 31.9782 146.838 31.9782H142.014C141.654 31.9782 141.654 32.1602 141.559 32.3702C141.425 32.9702 140.971 34.8092 140.808 35.4122C140.766 35.5342 140.682 35.6393 140.57 35.7106C140.458 35.7819 140.323 35.8152 140.188 35.8052H137.677C137.058 35.8052 137.024 35.5332 137.123 35.2052L141.881 17.6472C141.924 17.5108 142.017 17.3934 142.142 17.3159C142.268 17.2384 142.419 17.2059 142.567 17.2242H146.284C146.576 17.2242 146.837 17.2242 146.902 17.6152L151.789 35.1702ZM145.271 24.6612L144.488 21.1972C144.455 21.0472 144.293 21.0172 144.258 21.1972L143.509 24.5972L142.501 28.9082C142.468 29.1192 142.468 29.1782 142.728 29.1782H146.122C146.317 29.1782 146.413 29.1192 146.317 28.8782L145.271 24.6612Z" fill="#CC1B34"/>
<path d="M166.625 32.7642C166.697 32.7572 166.77 32.7657 166.838 32.7891C166.906 32.8124 166.967 32.8501 167.018 32.8992C167.069 32.9483 167.107 33.0076 167.13 33.0727C167.153 33.1378 167.16 33.207 167.152 33.2752V35.2622C167.152 35.6232 166.987 35.8062 166.661 35.8062H155.703C155.312 35.8062 155.116 35.6232 155.116 35.2932V17.6742C155.116 17.3442 155.312 17.2222 155.668 17.2222H158.214C158.569 17.2222 158.797 17.3142 158.797 17.6452V32.3092C158.797 32.6092 158.797 32.7642 159.223 32.7642H166.625Z" fill="#CC1B34"/>
<path d="M60.3674 35.8071H0.683173V0.00708008H60.3674V35.8071Z" fill="white"/>
<path d="M52.8263 0.648193L43.1642 15.6032L51.8115 25.8402L59.6905 22.3872V0.648193H52.8263Z" fill="#AF1D24"/>
<path d="M51.8116 25.839L59.6895 35.165V22.386L51.8116 25.839Z" fill="#F25B2B"/>
<path d="M30.5274 0.648193L43.159 15.6032L52.8263 0.648193H30.5274Z" fill="#F25B2B"/>
<path d="M39.6968 20.9732L43.1631 15.6032L30.5316 0.648193V18.5592H30.6168C33.8196 18.5549 36.9616 19.3902 39.6968 20.9732Z" fill="#FBD440"/>
<path d="M30.6137 18.5581H30.5274V35.1661L39.6958 20.9731C36.9601 19.3895 33.8173 18.5538 30.6137 18.5581Z" fill="#AF1D24"/>
<path d="M46.4747 28.1771L51.8116 25.8401L43.1621 15.5991L39.6947 20.9681C42.6531 22.6799 45.0121 25.1851 46.4747 28.1681" fill="#F25B2B"/>
<path d="M39.6968 20.9731L30.5284 35.1661L46.4747 28.1731C45.013 25.1902 42.6546 22.685 39.6968 20.9731Z" fill="#D91E25"/>
<path d="M51.8116 25.8401L46.4747 28.1771C47.5456 30.3664 48.0985 32.752 48.0947 35.1661H59.6884L51.8116 25.8401Z" fill="#FBD440"/>
<path d="M30.5274 35.1662H48.0937C48.0962 32.7527 47.5437 30.3677 46.4748 28.1782L30.5274 35.1662Z" fill="#AF1D24"/>
<path d="M1.36736 0.648193V22.3872L9.24314 25.8402L17.8937 15.6032L8.22946 0.648193H1.36736Z" fill="#AF1D24"/>
<path d="M1.36736 35.169L9.24314 25.839L1.36736 22.386V35.169Z" fill="#F25B2B"/>
<path d="M8.23053 0.648193L17.8926 15.6032L30.5274 0.648193H8.23053Z" fill="#F25B2B"/>
<path d="M21.3611 20.9732L17.8937 15.6032L30.5253 0.648193V18.5592H30.4453C27.2413 18.5547 24.0982 19.3904 21.3621 20.9742" fill="#D91E25"/>
<path d="M30.4442 18.5581H30.5284V35.1661L21.3611 20.9731C24.0971 19.3893 27.2402 18.5536 30.4442 18.5581Z" fill="#F25B2B"/>
<path d="M14.5831 28.1771L9.24629 25.8401L17.8947 15.5991L21.3621 20.9681C18.4037 22.6799 16.0447 25.1851 14.5821 28.1681" fill="#F25B2B"/>
<path d="M21.361 20.9731L30.5284 35.1661L14.581 28.1731C16.044 25.1904 18.403 22.6853 21.361 20.9731Z" fill="#D91E25"/>
<path d="M9.24525 25.8401L14.5821 28.1771C13.5116 30.3665 12.959 32.7521 12.9631 35.1661H1.36736L9.24525 25.8401Z" fill="#FBD440"/>
<path d="M30.5284 35.1662H12.9621C12.9583 32.7525 13.5109 30.3674 14.5811 28.1782L30.5284 35.1662Z" fill="#AF1D24"/>
</g>
<defs>
<clipPath id="clip0_548_293">
<rect width="166.463" height="35.985" fill="white" transform="translate(0.684211)"/>
</clipPath>
</defs>
</svg>
