<svg width="1250" height="67" viewBox="0 0 1250 67" fill="none" xmlns="http://www.w3.org/2000/svg">
<path d="M0 0H1380V67H0V0Z" fill="white"/>
<path d="M1380 66.5L1 66.5" stroke="#EDF1F1"/>
<path d="M36.1406 39.0703C36.1406 38.8359 36.1042 38.6276 36.0312 38.4453C35.9635 38.263 35.8411 38.0964 35.6641 37.9453C35.487 37.7943 35.237 37.6484 34.9141 37.5078C34.5964 37.362 34.1901 37.2135 33.6953 37.0625C33.1536 36.8958 32.6536 36.7109 32.1953 36.5078C31.7422 36.2995 31.3464 36.0599 31.0078 35.7891C30.6693 35.513 30.4062 35.1979 30.2188 34.8438C30.0312 34.4844 29.9375 34.0703 29.9375 33.6016C29.9375 33.138 30.0339 32.7161 30.2266 32.3359C30.4245 31.9557 30.7031 31.6276 31.0625 31.3516C31.4271 31.0703 31.8568 30.8542 32.3516 30.7031C32.8464 30.5469 33.3932 30.4688 33.9922 30.4688C34.8359 30.4688 35.5625 30.625 36.1719 30.9375C36.7865 31.25 37.2578 31.6693 37.5859 32.1953C37.9193 32.7214 38.0859 33.3021 38.0859 33.9375H36.1406C36.1406 33.5625 36.0599 33.2318 35.8984 32.9453C35.7422 32.6536 35.5026 32.4245 35.1797 32.2578C34.862 32.0911 34.4583 32.0078 33.9688 32.0078C33.5052 32.0078 33.1198 32.0781 32.8125 32.2188C32.5052 32.3594 32.276 32.5495 32.125 32.7891C31.974 33.0286 31.8984 33.2995 31.8984 33.6016C31.8984 33.8151 31.9479 34.0104 32.0469 34.1875C32.1458 34.3594 32.2969 34.5208 32.5 34.6719C32.7031 34.8177 32.9583 34.9557 33.2656 35.0859C33.5729 35.2161 33.9349 35.3411 34.3516 35.4609C34.9818 35.6484 35.5312 35.8568 36 36.0859C36.4688 36.3099 36.8594 36.5651 37.1719 36.8516C37.4844 37.138 37.7188 37.4635 37.875 37.8281C38.0312 38.1875 38.1094 38.5964 38.1094 39.0547C38.1094 39.5339 38.013 39.9661 37.8203 40.3516C37.6276 40.7318 37.3516 41.0573 36.9922 41.3281C36.638 41.5938 36.2109 41.7995 35.7109 41.9453C35.2161 42.0859 34.6641 42.1562 34.0547 42.1562C33.5078 42.1562 32.9688 42.0833 32.4375 41.9375C31.9115 41.7917 31.4323 41.5703 31 41.2734C30.5677 40.9714 30.224 40.5964 29.9688 40.1484C29.7135 39.6953 29.5859 39.1667 29.5859 38.5625H31.5469C31.5469 38.9323 31.6094 39.2474 31.7344 39.5078C31.8646 39.7682 32.0443 39.9818 32.2734 40.1484C32.5026 40.3099 32.7682 40.4297 33.0703 40.5078C33.3776 40.5859 33.7057 40.625 34.0547 40.625C34.513 40.625 34.8958 40.5599 35.2031 40.4297C35.5156 40.2995 35.75 40.1172 35.9062 39.8828C36.0625 39.6484 36.1406 39.3776 36.1406 39.0703ZM44.7422 40.0078V33.5469H46.6328V42H44.8516L44.7422 40.0078ZM45.0078 38.25L45.6406 38.2344C45.6406 38.8021 45.5781 39.3255 45.4531 39.8047C45.3281 40.2786 45.1354 40.6927 44.875 41.0469C44.6146 41.3958 44.2812 41.6693 43.875 41.8672C43.4688 42.0599 42.9818 42.1562 42.4141 42.1562C42.0026 42.1562 41.625 42.0964 41.2812 41.9766C40.9375 41.8568 40.6406 41.6719 40.3906 41.4219C40.1458 41.1719 39.9557 40.8464 39.8203 40.4453C39.6849 40.0443 39.6172 39.5651 39.6172 39.0078V33.5469H41.5V39.0234C41.5 39.3307 41.5365 39.5885 41.6094 39.7969C41.6823 40 41.7812 40.1641 41.9062 40.2891C42.0312 40.4141 42.1771 40.5026 42.3438 40.5547C42.5104 40.6068 42.6875 40.6328 42.875 40.6328C43.4115 40.6328 43.8333 40.5286 44.1406 40.3203C44.4531 40.1068 44.6745 39.8203 44.8047 39.4609C44.9401 39.1016 45.0078 38.6979 45.0078 38.25ZM50.4453 35.2656V42H48.5625V33.5469H50.3359L50.4453 35.2656ZM50.1406 37.4609L49.5 37.4531C49.5 36.8698 49.5729 36.3307 49.7188 35.8359C49.8646 35.3411 50.0781 34.9115 50.3594 34.5469C50.6406 34.1771 50.9896 33.8932 51.4062 33.6953C51.8281 33.4922 52.3151 33.3906 52.8672 33.3906C53.2526 33.3906 53.6042 33.4479 53.9219 33.5625C54.2448 33.6719 54.5234 33.8464 54.7578 34.0859C54.9974 34.3255 55.1797 34.6328 55.3047 35.0078C55.4349 35.3828 55.5 35.8359 55.5 36.3672V42H53.6172V36.5312C53.6172 36.1198 53.5547 35.7969 53.4297 35.5625C53.3099 35.3281 53.1354 35.1615 52.9062 35.0625C52.6823 34.9583 52.4141 34.9062 52.1016 34.9062C51.7474 34.9062 51.4453 34.974 51.1953 35.1094C50.9505 35.2448 50.75 35.4297 50.5938 35.6641C50.4375 35.8984 50.3229 36.1693 50.25 36.4766C50.1771 36.7839 50.1406 37.112 50.1406 37.4609ZM55.3828 36.9609L54.5 37.1562C54.5 36.6458 54.5703 36.1641 54.7109 35.7109C54.8568 35.2526 55.0677 34.8516 55.3438 34.5078C55.625 34.1589 55.9714 33.8854 56.3828 33.6875C56.7943 33.4896 57.2656 33.3906 57.7969 33.3906C58.2292 33.3906 58.6146 33.4505 58.9531 33.5703C59.2969 33.6849 59.5885 33.8672 59.8281 34.1172C60.0677 34.3672 60.25 34.6927 60.375 35.0938C60.5 35.4896 60.5625 35.9688 60.5625 36.5312V42H58.6719V36.5234C58.6719 36.0964 58.6094 35.7656 58.4844 35.5312C58.3646 35.2969 58.1927 35.1354 57.9688 35.0469C57.7448 34.9531 57.4766 34.9062 57.1641 34.9062C56.8724 34.9062 56.6146 34.9609 56.3906 35.0703C56.1719 35.1745 55.987 35.3229 55.8359 35.5156C55.6849 35.7031 55.5703 35.9193 55.4922 36.1641C55.4193 36.4089 55.3828 36.6745 55.3828 36.9609ZM64.3828 35.2656V42H62.5V33.5469H64.2734L64.3828 35.2656ZM64.0781 37.4609L63.4375 37.4531C63.4375 36.8698 63.5104 36.3307 63.6562 35.8359C63.8021 35.3411 64.0156 34.9115 64.2969 34.5469C64.5781 34.1771 64.9271 33.8932 65.3438 33.6953C65.7656 33.4922 66.2526 33.3906 66.8047 33.3906C67.1901 33.3906 67.5417 33.4479 67.8594 33.5625C68.1823 33.6719 68.4609 33.8464 68.6953 34.0859C68.9349 34.3255 69.1172 34.6328 69.2422 35.0078C69.3724 35.3828 69.4375 35.8359 69.4375 36.3672V42H67.5547V36.5312C67.5547 36.1198 67.4922 35.7969 67.3672 35.5625C67.2474 35.3281 67.0729 35.1615 66.8438 35.0625C66.6198 34.9583 66.3516 34.9062 66.0391 34.9062C65.6849 34.9062 65.3828 34.974 65.1328 35.1094C64.888 35.2448 64.6875 35.4297 64.5312 35.6641C64.375 35.8984 64.2604 36.1693 64.1875 36.4766C64.1146 36.7839 64.0781 37.112 64.0781 37.4609ZM69.3203 36.9609L68.4375 37.1562C68.4375 36.6458 68.5078 36.1641 68.6484 35.7109C68.7943 35.2526 69.0052 34.8516 69.2812 34.5078C69.5625 34.1589 69.9089 33.8854 70.3203 33.6875C70.7318 33.4896 71.2031 33.3906 71.7344 33.3906C72.1667 33.3906 72.5521 33.4505 72.8906 33.5703C73.2344 33.6849 73.526 33.8672 73.7656 34.1172C74.0052 34.3672 74.1875 34.6927 74.3125 35.0938C74.4375 35.4896 74.5 35.9688 74.5 36.5312V42H72.6094V36.5234C72.6094 36.0964 72.5469 35.7656 72.4219 35.5312C72.3021 35.2969 72.1302 35.1354 71.9062 35.0469C71.6823 34.9531 71.4141 34.9062 71.1016 34.9062C70.8099 34.9062 70.5521 34.9609 70.3281 35.0703C70.1094 35.1745 69.9245 35.3229 69.7734 35.5156C69.6224 35.7031 69.5078 35.9193 69.4297 36.1641C69.3568 36.4089 69.3203 36.6745 69.3203 36.9609ZM81.2031 40.3047V36.2734C81.2031 35.9714 81.1484 35.7109 81.0391 35.4922C80.9297 35.2734 80.763 35.1042 80.5391 34.9844C80.3203 34.8646 80.0443 34.8047 79.7109 34.8047C79.4036 34.8047 79.138 34.8568 78.9141 34.9609C78.6901 35.0651 78.5156 35.2057 78.3906 35.3828C78.2656 35.5599 78.2031 35.7604 78.2031 35.9844H76.3281C76.3281 35.651 76.4089 35.3281 76.5703 35.0156C76.7318 34.7031 76.9661 34.4245 77.2734 34.1797C77.5807 33.9349 77.9479 33.7422 78.375 33.6016C78.8021 33.4609 79.2812 33.3906 79.8125 33.3906C80.4479 33.3906 81.0104 33.4974 81.5 33.7109C81.9948 33.9245 82.3828 34.2474 82.6641 34.6797C82.9505 35.1068 83.0938 35.6432 83.0938 36.2891V40.0469C83.0938 40.4323 83.1198 40.7786 83.1719 41.0859C83.2292 41.388 83.3099 41.651 83.4141 41.875V42H81.4844C81.3958 41.7969 81.3255 41.5391 81.2734 41.2266C81.2266 40.9089 81.2031 40.6016 81.2031 40.3047ZM81.4766 36.8594L81.4922 38.0234H80.1406C79.7917 38.0234 79.4844 38.0573 79.2188 38.125C78.9531 38.1875 78.7318 38.2812 78.5547 38.4062C78.3776 38.5312 78.2448 38.6823 78.1562 38.8594C78.0677 39.0365 78.0234 39.237 78.0234 39.4609C78.0234 39.6849 78.0755 39.8906 78.1797 40.0781C78.2839 40.2604 78.4349 40.4036 78.6328 40.5078C78.8359 40.612 79.0807 40.6641 79.3672 40.6641C79.7526 40.6641 80.0885 40.5859 80.375 40.4297C80.6667 40.2682 80.8958 40.0729 81.0625 39.8438C81.2292 39.6094 81.3177 39.388 81.3281 39.1797L81.9375 40.0156C81.875 40.2292 81.7682 40.4583 81.6172 40.7031C81.4661 40.9479 81.2682 41.1823 81.0234 41.4062C80.7839 41.625 80.4948 41.8047 80.1562 41.9453C79.8229 42.0859 79.4375 42.1562 79 42.1562C78.4479 42.1562 77.9557 42.0469 77.5234 41.8281C77.0911 41.6042 76.7526 41.3047 76.5078 40.9297C76.263 40.5495 76.1406 40.1198 76.1406 39.6406C76.1406 39.1927 76.224 38.7969 76.3906 38.4531C76.5625 38.1042 76.8125 37.8125 77.1406 37.5781C77.474 37.3438 77.8802 37.1667 78.3594 37.0469C78.8385 36.9219 79.3854 36.8594 80 36.8594H81.4766ZM86.9531 35.1562V42H85.0703V33.5469H86.8672L86.9531 35.1562ZM89.5391 33.4922L89.5234 35.2422C89.4089 35.2214 89.2839 35.2057 89.1484 35.1953C89.0182 35.1849 88.888 35.1797 88.7578 35.1797C88.4349 35.1797 88.151 35.2266 87.9062 35.3203C87.6615 35.4089 87.4557 35.5391 87.2891 35.7109C87.1276 35.8776 87.0026 36.0807 86.9141 36.3203C86.8255 36.5599 86.7734 36.8281 86.7578 37.125L86.3281 37.1562C86.3281 36.625 86.3802 36.1328 86.4844 35.6797C86.5885 35.2266 86.7448 34.8281 86.9531 34.4844C87.1667 34.1406 87.4323 33.8724 87.75 33.6797C88.0729 33.487 88.4453 33.3906 88.8672 33.3906C88.9818 33.3906 89.1042 33.401 89.2344 33.4219C89.3698 33.4427 89.4714 33.4661 89.5391 33.4922ZM93.3125 41.0781L95.6094 33.5469H97.625L94.2344 43.2891C94.1562 43.4974 94.0547 43.724 93.9297 43.9688C93.8047 44.2135 93.6406 44.4453 93.4375 44.6641C93.2396 44.888 92.9922 45.0677 92.6953 45.2031C92.3984 45.3438 92.0391 45.4141 91.6172 45.4141C91.4505 45.4141 91.2891 45.3984 91.1328 45.3672C90.9818 45.3411 90.8385 45.3125 90.7031 45.2812L90.6953 43.8438C90.7474 43.849 90.8099 43.8542 90.8828 43.8594C90.9609 43.8646 91.0234 43.8672 91.0703 43.8672C91.3828 43.8672 91.6432 43.8281 91.8516 43.75C92.0599 43.6771 92.2292 43.5573 92.3594 43.3906C92.4948 43.224 92.6094 43 92.7031 42.7188L93.3125 41.0781ZM92.0156 33.5469L94.0234 39.875L94.3594 41.8594L93.0547 42.1953L89.9844 33.5469H92.0156Z" fill="#CC1B34"/>
<path d="M162.461 42H160.031L160.047 40.4453H162.461C163.164 40.4453 163.753 40.2917 164.227 39.9844C164.706 39.6771 165.065 39.237 165.305 38.6641C165.549 38.0911 165.672 37.4089 165.672 36.6172V36C165.672 35.3854 165.602 34.8411 165.461 34.3672C165.326 33.8932 165.122 33.4948 164.852 33.1719C164.586 32.849 164.258 32.6042 163.867 32.4375C163.482 32.2708 163.036 32.1875 162.531 32.1875H159.984V30.625H162.531C163.286 30.625 163.977 30.7526 164.602 31.0078C165.227 31.2578 165.766 31.6198 166.219 32.0938C166.677 32.5677 167.029 33.1354 167.273 33.7969C167.518 34.4583 167.641 35.1979 167.641 36.0156V36.6172C167.641 37.4349 167.518 38.1745 167.273 38.8359C167.029 39.4974 166.677 40.0651 166.219 40.5391C165.76 41.0078 165.214 41.3698 164.578 41.625C163.948 41.875 163.242 42 162.461 42ZM161.117 30.625V42H159.156V30.625H161.117ZM173.148 42.1562C172.523 42.1562 171.958 42.0547 171.453 41.8516C170.953 41.6432 170.526 41.3542 170.172 40.9844C169.823 40.6146 169.555 40.1797 169.367 39.6797C169.18 39.1797 169.086 38.6406 169.086 38.0625V37.75C169.086 37.0885 169.182 36.4896 169.375 35.9531C169.568 35.4167 169.836 34.9583 170.18 34.5781C170.523 34.1927 170.93 33.8984 171.398 33.6953C171.867 33.4922 172.375 33.3906 172.922 33.3906C173.526 33.3906 174.055 33.4922 174.508 33.6953C174.961 33.8984 175.336 34.1849 175.633 34.5547C175.935 34.9193 176.159 35.3542 176.305 35.8594C176.456 36.3646 176.531 36.9219 176.531 37.5312V38.3359H170V36.9844H174.672V36.8359C174.661 36.4974 174.594 36.1797 174.469 35.8828C174.349 35.5859 174.164 35.3464 173.914 35.1641C173.664 34.9818 173.331 34.8906 172.914 34.8906C172.602 34.8906 172.323 34.9583 172.078 35.0938C171.839 35.224 171.638 35.4141 171.477 35.6641C171.315 35.9141 171.19 36.2161 171.102 36.5703C171.018 36.9193 170.977 37.3125 170.977 37.75V38.0625C170.977 38.4323 171.026 38.776 171.125 39.0938C171.229 39.4062 171.38 39.6797 171.578 39.9141C171.776 40.1484 172.016 40.3333 172.297 40.4688C172.578 40.599 172.898 40.6641 173.258 40.6641C173.711 40.6641 174.115 40.5729 174.469 40.3906C174.823 40.2083 175.13 39.9505 175.391 39.6172L176.383 40.5781C176.201 40.8438 175.964 41.099 175.672 41.3438C175.38 41.5833 175.023 41.7786 174.602 41.9297C174.185 42.0807 173.701 42.1562 173.148 42.1562ZM181.875 33.5469V34.9219H177.109V33.5469H181.875ZM178.484 31.4766H180.367V39.6641C180.367 39.9245 180.404 40.125 180.477 40.2656C180.555 40.401 180.661 40.4922 180.797 40.5391C180.932 40.5859 181.091 40.6094 181.273 40.6094C181.404 40.6094 181.529 40.6016 181.648 40.5859C181.768 40.5703 181.865 40.5547 181.938 40.5391L181.945 41.9766C181.789 42.0234 181.607 42.0651 181.398 42.1016C181.195 42.138 180.961 42.1562 180.695 42.1562C180.263 42.1562 179.88 42.0807 179.547 41.9297C179.214 41.7734 178.953 41.5208 178.766 41.1719C178.578 40.8229 178.484 40.3594 178.484 39.7812V31.4766ZM188.094 40.3047V36.2734C188.094 35.9714 188.039 35.7109 187.93 35.4922C187.82 35.2734 187.654 35.1042 187.43 34.9844C187.211 34.8646 186.935 34.8047 186.602 34.8047C186.294 34.8047 186.029 34.8568 185.805 34.9609C185.581 35.0651 185.406 35.2057 185.281 35.3828C185.156 35.5599 185.094 35.7604 185.094 35.9844H183.219C183.219 35.651 183.299 35.3281 183.461 35.0156C183.622 34.7031 183.857 34.4245 184.164 34.1797C184.471 33.9349 184.839 33.7422 185.266 33.6016C185.693 33.4609 186.172 33.3906 186.703 33.3906C187.339 33.3906 187.901 33.4974 188.391 33.7109C188.885 33.9245 189.273 34.2474 189.555 34.6797C189.841 35.1068 189.984 35.6432 189.984 36.2891V40.0469C189.984 40.4323 190.01 40.7786 190.062 41.0859C190.12 41.388 190.201 41.651 190.305 41.875V42H188.375C188.286 41.7969 188.216 41.5391 188.164 41.2266C188.117 40.9089 188.094 40.6016 188.094 40.3047ZM188.367 36.8594L188.383 38.0234H187.031C186.682 38.0234 186.375 38.0573 186.109 38.125C185.844 38.1875 185.622 38.2812 185.445 38.4062C185.268 38.5312 185.135 38.6823 185.047 38.8594C184.958 39.0365 184.914 39.237 184.914 39.4609C184.914 39.6849 184.966 39.8906 185.07 40.0781C185.174 40.2604 185.326 40.4036 185.523 40.5078C185.727 40.612 185.971 40.6641 186.258 40.6641C186.643 40.6641 186.979 40.5859 187.266 40.4297C187.557 40.2682 187.786 40.0729 187.953 39.8438C188.12 39.6094 188.208 39.388 188.219 39.1797L188.828 40.0156C188.766 40.2292 188.659 40.4583 188.508 40.7031C188.357 40.9479 188.159 41.1823 187.914 41.4062C187.674 41.625 187.385 41.8047 187.047 41.9453C186.714 42.0859 186.328 42.1562 185.891 42.1562C185.339 42.1562 184.846 42.0469 184.414 41.8281C183.982 41.6042 183.643 41.3047 183.398 40.9297C183.154 40.5495 183.031 40.1198 183.031 39.6406C183.031 39.1927 183.115 38.7969 183.281 38.4531C183.453 38.1042 183.703 37.8125 184.031 37.5781C184.365 37.3438 184.771 37.1667 185.25 37.0469C185.729 36.9219 186.276 36.8594 186.891 36.8594H188.367ZM193.969 33.5469V42H192.078V33.5469H193.969ZM191.953 31.3281C191.953 31.0417 192.047 30.8047 192.234 30.6172C192.427 30.4245 192.693 30.3281 193.031 30.3281C193.365 30.3281 193.628 30.4245 193.82 30.6172C194.013 30.8047 194.109 31.0417 194.109 31.3281C194.109 31.6094 194.013 31.8438 193.82 32.0312C193.628 32.2188 193.365 32.3125 193.031 32.3125C192.693 32.3125 192.427 32.2188 192.234 32.0312C192.047 31.8438 191.953 31.6094 191.953 31.3281ZM198.047 30V42H196.156V30H198.047ZM203.836 42.1562C203.211 42.1562 202.646 42.0547 202.141 41.8516C201.641 41.6432 201.214 41.3542 200.859 40.9844C200.51 40.6146 200.242 40.1797 200.055 39.6797C199.867 39.1797 199.773 38.6406 199.773 38.0625V37.75C199.773 37.0885 199.87 36.4896 200.062 35.9531C200.255 35.4167 200.523 34.9583 200.867 34.5781C201.211 34.1927 201.617 33.8984 202.086 33.6953C202.555 33.4922 203.062 33.3906 203.609 33.3906C204.214 33.3906 204.742 33.4922 205.195 33.6953C205.648 33.8984 206.023 34.1849 206.32 34.5547C206.622 34.9193 206.846 35.3542 206.992 35.8594C207.143 36.3646 207.219 36.9219 207.219 37.5312V38.3359H200.688V36.9844H205.359V36.8359C205.349 36.4974 205.281 36.1797 205.156 35.8828C205.036 35.5859 204.852 35.3464 204.602 35.1641C204.352 34.9818 204.018 34.8906 203.602 34.8906C203.289 34.8906 203.01 34.9583 202.766 35.0938C202.526 35.224 202.326 35.4141 202.164 35.6641C202.003 35.9141 201.878 36.2161 201.789 36.5703C201.706 36.9193 201.664 37.3125 201.664 37.75V38.0625C201.664 38.4323 201.714 38.776 201.812 39.0938C201.917 39.4062 202.068 39.6797 202.266 39.9141C202.464 40.1484 202.703 40.3333 202.984 40.4688C203.266 40.599 203.586 40.6641 203.945 40.6641C204.398 40.6641 204.802 40.5729 205.156 40.3906C205.51 40.2083 205.818 39.9505 206.078 39.6172L207.07 40.5781C206.888 40.8438 206.651 41.099 206.359 41.3438C206.068 41.5833 205.711 41.7786 205.289 41.9297C204.872 42.0807 204.388 42.1562 203.836 42.1562ZM213.844 40.25V30H215.734V42H214.023L213.844 40.25ZM208.344 37.8672V37.7031C208.344 37.0625 208.419 36.4792 208.57 35.9531C208.721 35.4219 208.94 34.9661 209.227 34.5859C209.513 34.2005 209.862 33.9062 210.273 33.7031C210.685 33.4948 211.148 33.3906 211.664 33.3906C212.174 33.3906 212.622 33.4896 213.008 33.6875C213.393 33.8854 213.721 34.1693 213.992 34.5391C214.263 34.9036 214.479 35.3411 214.641 35.8516C214.802 36.3568 214.917 36.9193 214.984 37.5391V38.0625C214.917 38.6667 214.802 39.2188 214.641 39.7188C214.479 40.2188 214.263 40.651 213.992 41.0156C213.721 41.3802 213.391 41.6615 213 41.8594C212.615 42.0573 212.164 42.1562 211.648 42.1562C211.138 42.1562 210.677 42.0495 210.266 41.8359C209.859 41.6224 209.513 41.3229 209.227 40.9375C208.94 40.5521 208.721 40.099 208.57 39.5781C208.419 39.0521 208.344 38.4818 208.344 37.8672ZM210.227 37.7031V37.8672C210.227 38.2526 210.26 38.612 210.328 38.9453C210.401 39.2786 210.513 39.5729 210.664 39.8281C210.815 40.0781 211.01 40.276 211.25 40.4219C211.495 40.5625 211.786 40.6328 212.125 40.6328C212.552 40.6328 212.904 40.5391 213.18 40.3516C213.456 40.1641 213.672 39.9115 213.828 39.5938C213.99 39.2708 214.099 38.9115 214.156 38.5156V37.1016C214.125 36.7943 214.06 36.5078 213.961 36.2422C213.867 35.9766 213.74 35.7448 213.578 35.5469C213.417 35.3438 213.216 35.1875 212.977 35.0781C212.742 34.9635 212.464 34.9062 212.141 34.9062C211.797 34.9062 211.505 34.9792 211.266 35.125C211.026 35.2708 210.828 35.4714 210.672 35.7266C210.521 35.9818 210.409 36.2786 210.336 36.6172C210.263 36.9557 210.227 37.3177 210.227 37.7031ZM225.18 42H222.75L222.766 40.4453H225.18C225.883 40.4453 226.471 40.2917 226.945 39.9844C227.424 39.6771 227.784 39.237 228.023 38.6641C228.268 38.0911 228.391 37.4089 228.391 36.6172V36C228.391 35.3854 228.32 34.8411 228.18 34.3672C228.044 33.8932 227.841 33.4948 227.57 33.1719C227.305 32.849 226.977 32.6042 226.586 32.4375C226.201 32.2708 225.755 32.1875 225.25 32.1875H222.703V30.625H225.25C226.005 30.625 226.695 30.7526 227.32 31.0078C227.945 31.2578 228.484 31.6198 228.938 32.0938C229.396 32.5677 229.747 33.1354 229.992 33.7969C230.237 34.4583 230.359 35.1979 230.359 36.0156V36.6172C230.359 37.4349 230.237 38.1745 229.992 38.8359C229.747 39.4974 229.396 40.0651 228.938 40.5391C228.479 41.0078 227.932 41.3698 227.297 41.625C226.667 41.875 225.961 42 225.18 42ZM223.836 30.625V42H221.875V30.625H223.836ZM238.352 40.4844L241.344 42.8594L240.07 43.9766L237.133 41.625L238.352 40.4844ZM241.367 36V36.625C241.367 37.4844 241.255 38.2552 241.031 38.9375C240.807 39.6198 240.487 40.2005 240.07 40.6797C239.654 41.1589 239.156 41.526 238.578 41.7812C238 42.0312 237.359 42.1562 236.656 42.1562C235.958 42.1562 235.32 42.0312 234.742 41.7812C234.169 41.526 233.672 41.1589 233.25 40.6797C232.828 40.2005 232.5 39.6198 232.266 38.9375C232.036 38.2552 231.922 37.4844 231.922 36.625V36C231.922 35.1406 232.036 34.3724 232.266 33.6953C232.495 33.013 232.818 32.4323 233.234 31.9531C233.656 31.4688 234.154 31.1016 234.727 30.8516C235.305 30.5964 235.943 30.4688 236.641 30.4688C237.344 30.4688 237.984 30.5964 238.562 30.8516C239.146 31.1016 239.646 31.4688 240.062 31.9531C240.479 32.4323 240.799 33.013 241.023 33.6953C241.253 34.3724 241.367 35.1406 241.367 36ZM239.398 36.625V35.9844C239.398 35.349 239.336 34.7891 239.211 34.3047C239.091 33.8151 238.911 33.4062 238.672 33.0781C238.438 32.7448 238.148 32.4948 237.805 32.3281C237.466 32.1562 237.078 32.0703 236.641 32.0703C236.214 32.0703 235.831 32.1562 235.492 32.3281C235.154 32.4948 234.865 32.7448 234.625 33.0781C234.385 33.4062 234.203 33.8151 234.078 34.3047C233.953 34.7891 233.891 35.349 233.891 35.9844V36.625C233.891 37.2604 233.953 37.8229 234.078 38.3125C234.203 38.8021 234.385 39.2161 234.625 39.5547C234.87 39.888 235.161 40.1406 235.5 40.3125C235.844 40.4792 236.229 40.5625 236.656 40.5625C237.094 40.5625 237.482 40.4792 237.82 40.3125C238.159 40.1406 238.445 39.888 238.68 39.5547C238.914 39.2161 239.091 38.8021 239.211 38.3125C239.336 37.8229 239.398 37.2604 239.398 36.625ZM251.773 32.1406L248.375 42H246.32L250.602 30.625H251.914L251.773 32.1406ZM254.617 42L251.211 32.1406L251.062 30.625H252.383L256.68 42H254.617ZM254.453 37.7812V39.3359H248.266V37.7812H254.453ZM259.492 35.3516V42H257.609V33.5469H259.383L259.492 35.3516ZM259.156 37.4609L258.547 37.4531C258.552 36.8542 258.635 36.3047 258.797 35.8047C258.964 35.3047 259.193 34.875 259.484 34.5156C259.781 34.1562 260.135 33.8802 260.547 33.6875C260.958 33.4896 261.417 33.3906 261.922 33.3906C262.328 33.3906 262.695 33.4479 263.023 33.5625C263.357 33.6719 263.641 33.8516 263.875 34.1016C264.115 34.3516 264.297 34.6771 264.422 35.0781C264.547 35.474 264.609 35.9609 264.609 36.5391V42H262.719V36.5312C262.719 36.125 262.659 35.8047 262.539 35.5703C262.424 35.3307 262.255 35.1615 262.031 35.0625C261.812 34.9583 261.539 34.9062 261.211 34.9062C260.888 34.9062 260.599 34.974 260.344 35.1094C260.089 35.2448 259.872 35.4297 259.695 35.6641C259.523 35.8984 259.391 36.1693 259.297 36.4766C259.203 36.7839 259.156 37.112 259.156 37.4609ZM271.297 40.3047V36.2734C271.297 35.9714 271.242 35.7109 271.133 35.4922C271.023 35.2734 270.857 35.1042 270.633 34.9844C270.414 34.8646 270.138 34.8047 269.805 34.8047C269.497 34.8047 269.232 34.8568 269.008 34.9609C268.784 35.0651 268.609 35.2057 268.484 35.3828C268.359 35.5599 268.297 35.7604 268.297 35.9844H266.422C266.422 35.651 266.503 35.3281 266.664 35.0156C266.826 34.7031 267.06 34.4245 267.367 34.1797C267.674 33.9349 268.042 33.7422 268.469 33.6016C268.896 33.4609 269.375 33.3906 269.906 33.3906C270.542 33.3906 271.104 33.4974 271.594 33.7109C272.089 33.9245 272.477 34.2474 272.758 34.6797C273.044 35.1068 273.188 35.6432 273.188 36.2891V40.0469C273.188 40.4323 273.214 40.7786 273.266 41.0859C273.323 41.388 273.404 41.651 273.508 41.875V42H271.578C271.49 41.7969 271.419 41.5391 271.367 41.2266C271.32 40.9089 271.297 40.6016 271.297 40.3047ZM271.57 36.8594L271.586 38.0234H270.234C269.885 38.0234 269.578 38.0573 269.312 38.125C269.047 38.1875 268.826 38.2812 268.648 38.4062C268.471 38.5312 268.339 38.6823 268.25 38.8594C268.161 39.0365 268.117 39.237 268.117 39.4609C268.117 39.6849 268.169 39.8906 268.273 40.0781C268.378 40.2604 268.529 40.4036 268.727 40.5078C268.93 40.612 269.174 40.6641 269.461 40.6641C269.846 40.6641 270.182 40.5859 270.469 40.4297C270.76 40.2682 270.99 40.0729 271.156 39.8438C271.323 39.6094 271.411 39.388 271.422 39.1797L272.031 40.0156C271.969 40.2292 271.862 40.4583 271.711 40.7031C271.56 40.9479 271.362 41.1823 271.117 41.4062C270.878 41.625 270.589 41.8047 270.25 41.9453C269.917 42.0859 269.531 42.1562 269.094 42.1562C268.542 42.1562 268.049 42.0469 267.617 41.8281C267.185 41.6042 266.846 41.3047 266.602 40.9297C266.357 40.5495 266.234 40.1198 266.234 39.6406C266.234 39.1927 266.318 38.7969 266.484 38.4531C266.656 38.1042 266.906 37.8125 267.234 37.5781C267.568 37.3438 267.974 37.1667 268.453 37.0469C268.932 36.9219 269.479 36.8594 270.094 36.8594H271.57ZM277.172 30V42H275.281V30H277.172ZM281.688 41.0781L283.984 33.5469H286L282.609 43.2891C282.531 43.4974 282.43 43.724 282.305 43.9688C282.18 44.2135 282.016 44.4453 281.812 44.6641C281.615 44.888 281.367 45.0677 281.07 45.2031C280.773 45.3438 280.414 45.4141 279.992 45.4141C279.826 45.4141 279.664 45.3984 279.508 45.3672C279.357 45.3411 279.214 45.3125 279.078 45.2812L279.07 43.8438C279.122 43.849 279.185 43.8542 279.258 43.8594C279.336 43.8646 279.398 43.8672 279.445 43.8672C279.758 43.8672 280.018 43.8281 280.227 43.75C280.435 43.6771 280.604 43.5573 280.734 43.3906C280.87 43.224 280.984 43 281.078 42.7188L281.688 41.0781ZM280.391 33.5469L282.398 39.875L282.734 41.8594L281.43 42.1953L278.359 33.5469H280.391ZM291.82 39.7109C291.82 39.5234 291.773 39.3542 291.68 39.2031C291.586 39.0469 291.406 38.9062 291.141 38.7812C290.88 38.6562 290.495 38.5417 289.984 38.4375C289.536 38.3385 289.125 38.2214 288.75 38.0859C288.38 37.9453 288.062 37.776 287.797 37.5781C287.531 37.3802 287.326 37.1458 287.18 36.875C287.034 36.6042 286.961 36.2917 286.961 35.9375C286.961 35.5938 287.036 35.2682 287.188 34.9609C287.339 34.6536 287.555 34.3828 287.836 34.1484C288.117 33.9141 288.458 33.7292 288.859 33.5938C289.266 33.4583 289.719 33.3906 290.219 33.3906C290.927 33.3906 291.534 33.5104 292.039 33.75C292.549 33.9844 292.94 34.3047 293.211 34.7109C293.482 35.112 293.617 35.5651 293.617 36.0703H291.734C291.734 35.8464 291.677 35.638 291.562 35.4453C291.453 35.2474 291.286 35.0885 291.062 34.9688C290.839 34.8438 290.557 34.7812 290.219 34.7812C289.896 34.7812 289.628 34.8333 289.414 34.9375C289.206 35.0365 289.049 35.1667 288.945 35.3281C288.846 35.4896 288.797 35.6667 288.797 35.8594C288.797 36 288.823 36.1276 288.875 36.2422C288.932 36.3516 289.026 36.4531 289.156 36.5469C289.286 36.6354 289.464 36.7188 289.688 36.7969C289.917 36.875 290.203 36.9505 290.547 37.0234C291.193 37.1589 291.747 37.3333 292.211 37.5469C292.68 37.7552 293.039 38.026 293.289 38.3594C293.539 38.6875 293.664 39.1042 293.664 39.6094C293.664 39.9844 293.583 40.3281 293.422 40.6406C293.266 40.9479 293.036 41.2161 292.734 41.4453C292.432 41.6693 292.07 41.8438 291.648 41.9688C291.232 42.0938 290.763 42.1562 290.242 42.1562C289.477 42.1562 288.828 42.0208 288.297 41.75C287.766 41.474 287.362 41.1224 287.086 40.6953C286.815 40.263 286.68 39.8151 286.68 39.3516H288.5C288.521 39.7005 288.617 39.9792 288.789 40.1875C288.966 40.3906 289.185 40.5391 289.445 40.6328C289.711 40.7214 289.984 40.7656 290.266 40.7656C290.604 40.7656 290.888 40.7214 291.117 40.6328C291.346 40.5391 291.521 40.4141 291.641 40.2578C291.76 40.0964 291.82 39.9141 291.82 39.7109ZM297.328 33.5469V42H295.438V33.5469H297.328ZM295.312 31.3281C295.312 31.0417 295.406 30.8047 295.594 30.6172C295.786 30.4245 296.052 30.3281 296.391 30.3281C296.724 30.3281 296.987 30.4245 297.18 30.6172C297.372 30.8047 297.469 31.0417 297.469 31.3281C297.469 31.6094 297.372 31.8438 297.18 32.0312C296.987 32.2188 296.724 32.3125 296.391 32.3125C296.052 32.3125 295.786 32.2188 295.594 32.0312C295.406 31.8438 295.312 31.6094 295.312 31.3281ZM304.133 39.7109C304.133 39.5234 304.086 39.3542 303.992 39.2031C303.898 39.0469 303.719 38.9062 303.453 38.7812C303.193 38.6562 302.807 38.5417 302.297 38.4375C301.849 38.3385 301.438 38.2214 301.062 38.0859C300.693 37.9453 300.375 37.776 300.109 37.5781C299.844 37.3802 299.638 37.1458 299.492 36.875C299.346 36.6042 299.273 36.2917 299.273 35.9375C299.273 35.5938 299.349 35.2682 299.5 34.9609C299.651 34.6536 299.867 34.3828 300.148 34.1484C300.43 33.9141 300.771 33.7292 301.172 33.5938C301.578 33.4583 302.031 33.3906 302.531 33.3906C303.24 33.3906 303.846 33.5104 304.352 33.75C304.862 33.9844 305.253 34.3047 305.523 34.7109C305.794 35.112 305.93 35.5651 305.93 36.0703H304.047C304.047 35.8464 303.99 35.638 303.875 35.4453C303.766 35.2474 303.599 35.0885 303.375 34.9688C303.151 34.8438 302.87 34.7812 302.531 34.7812C302.208 34.7812 301.94 34.8333 301.727 34.9375C301.518 35.0365 301.362 35.1667 301.258 35.3281C301.159 35.4896 301.109 35.6667 301.109 35.8594C301.109 36 301.135 36.1276 301.188 36.2422C301.245 36.3516 301.339 36.4531 301.469 36.5469C301.599 36.6354 301.776 36.7188 302 36.7969C302.229 36.875 302.516 36.9505 302.859 37.0234C303.505 37.1589 304.06 37.3333 304.523 37.5469C304.992 37.7552 305.352 38.026 305.602 38.3594C305.852 38.6875 305.977 39.1042 305.977 39.6094C305.977 39.9844 305.896 40.3281 305.734 40.6406C305.578 40.9479 305.349 41.2161 305.047 41.4453C304.745 41.6693 304.383 41.8438 303.961 41.9688C303.544 42.0938 303.076 42.1562 302.555 42.1562C301.789 42.1562 301.141 42.0208 300.609 41.75C300.078 41.474 299.674 41.1224 299.398 40.6953C299.128 40.263 298.992 39.8151 298.992 39.3516H300.812C300.833 39.7005 300.93 39.9792 301.102 40.1875C301.279 40.3906 301.497 40.5391 301.758 40.6328C302.023 40.7214 302.297 40.7656 302.578 40.7656C302.917 40.7656 303.201 40.7214 303.43 40.6328C303.659 40.5391 303.833 40.4141 303.953 40.2578C304.073 40.0964 304.133 39.9141 304.133 39.7109Z" fill="#737373"/>
</svg>
