<svg width="115" height="38" viewBox="0 0 115 38" fill="none" xmlns="http://www.w3.org/2000/svg">
<g clip-path="url(#clip0_548_34)">
<path d="M32.166 32.1135C28.614 28.8357 23.9737 26.9897 19.1408 26.9317C14.3078 26.8736 9.62465 28.6077 5.99489 31.7992L4.35242 29.9356C8.44258 26.338 13.7202 24.3826 19.1671 24.4469C24.614 24.5111 29.8441 26.5904 33.8482 30.2835L32.166 32.1135Z" fill="black"/>
<path d="M18.9046 10.8772C20.1234 10.8772 21.3148 11.2386 22.3282 11.9157C23.3416 12.5928 24.1315 13.5553 24.5979 14.6813C25.0643 15.8073 25.1863 17.0463 24.9485 18.2417C24.7107 19.4371 24.1239 20.5351 23.262 21.3969C22.4002 22.2587 21.3022 22.8456 20.1068 23.0834C18.9115 23.3212 17.6725 23.1991 16.5465 22.7327C15.4205 22.2663 14.458 21.4765 13.7809 20.4631C13.1037 19.4497 12.7424 18.2583 12.7424 17.0395C12.7444 15.4057 13.3942 13.8395 14.5494 12.6843C15.7046 11.529 17.2709 10.8792 18.9046 10.8772ZM18.9046 8.39238C17.1944 8.39238 15.5226 8.89953 14.1006 9.84968C12.6786 10.7998 11.5703 12.1503 10.9158 13.7304C10.2613 15.3104 10.0901 17.0491 10.4237 18.7265C10.7574 20.4038 11.5809 21.9446 12.7902 23.1539C13.9995 24.3632 15.5403 25.1868 17.2177 25.5204C18.8951 25.8541 20.6337 25.6828 22.2138 25.0284C23.7938 24.3739 25.1443 23.2656 26.0944 21.8436C27.0446 20.4216 27.5517 18.7497 27.5517 17.0395C27.5517 14.7461 26.6407 12.5467 25.019 10.9251C23.3974 9.30342 21.198 8.39238 18.9046 8.39238Z" fill="black"/>
<path d="M19.0264 2.48828C22.2928 2.48828 25.4858 3.45688 28.2017 5.2716C30.9176 7.08631 33.0344 9.66563 34.2844 12.6834C35.5344 15.7011 35.8614 19.0218 35.2242 22.2254C34.587 25.4291 33.014 28.3718 30.7043 30.6815C28.3947 32.9912 25.452 34.5641 22.2483 35.2014C19.0447 35.8386 15.724 35.5115 12.7063 34.2616C9.68849 33.0116 7.10919 30.8948 5.29448 28.1789C3.47976 25.4629 2.51114 22.2699 2.51114 19.0035C2.51607 14.6249 4.25766 10.4271 7.35379 7.33093C10.4499 4.2348 14.6478 2.49321 19.0264 2.48828ZM19.0264 0.003479C15.2685 0.003479 11.5951 1.11782 8.47054 3.20557C5.34601 5.29332 2.91071 8.2607 1.47265 11.7325C0.0345808 15.2043 -0.341657 19.0246 0.391462 22.7102C1.12458 26.3958 2.93415 29.7813 5.59135 32.4385C8.24855 35.0957 11.634 36.9053 15.3197 37.6384C19.0053 38.3715 22.8255 37.9953 26.2973 36.5572C29.7691 35.1191 32.7365 32.6838 34.8243 29.5593C36.912 26.4348 38.0263 22.7613 38.0263 19.0035C38.0263 13.9644 36.0246 9.13164 32.4614 5.56845C28.8982 2.00526 24.0655 0.003479 19.0264 0.003479Z" fill="black"/>
</g>
<path d="M54.1104 17.5C54.0384 17.5 53.9904 17.468 53.9664 17.404L53.5344 16C53.5264 15.976 53.5104 15.964 53.4864 15.964H50.1144C50.0904 15.964 50.0744 15.976 50.0664 16L49.6344 17.404C49.6104 17.468 49.5624 17.5 49.4904 17.5H48.5184C48.4304 17.5 48.3984 17.456 48.4224 17.368L51.0504 9.196C51.0744 9.132 51.1224 9.1 51.1944 9.1H52.3944C52.4664 9.1 52.5144 9.132 52.5384 9.196L55.1904 17.368L55.2024 17.416C55.2024 17.472 55.1664 17.5 55.0944 17.5H54.1104ZM50.3664 14.992C50.3584 15.008 50.3584 15.024 50.3664 15.04C50.3824 15.048 50.3984 15.052 50.4144 15.052H53.1744C53.1904 15.052 53.2024 15.048 53.2104 15.04C53.2264 15.024 53.2304 15.008 53.2224 14.992L51.8304 10.54C51.8224 10.524 51.8104 10.516 51.7944 10.516C51.7784 10.516 51.7664 10.524 51.7584 10.54L50.3664 14.992ZM56.545 17.5C56.465 17.5 56.425 17.46 56.425 17.38V9.22C56.425 9.14 56.465 9.1 56.545 9.1H57.457C57.537 9.1 57.577 9.14 57.577 9.22V17.38C57.577 17.46 57.537 17.5 57.457 17.5H56.545Z" fill="#3C4043"/>
<path d="M54.1487 31.596C53.5807 31.596 53.0807 31.48 52.6487 31.248C52.2167 31.016 51.8807 30.692 51.6407 30.276C51.4087 29.852 51.2927 29.364 51.2927 28.812V25.788C51.2927 25.236 51.4087 24.752 51.6407 24.336C51.8807 23.912 52.2167 23.584 52.6487 23.352C53.0807 23.12 53.5807 23.004 54.1487 23.004C54.7167 23.004 55.2167 23.12 55.6487 23.352C56.0887 23.584 56.4247 23.912 56.6567 24.336C56.8967 24.752 57.0167 25.236 57.0167 25.788V28.812C57.0167 29.364 56.8967 29.852 56.6567 30.276C56.4247 30.692 56.0887 31.016 55.6487 31.248C55.2167 31.48 54.7167 31.596 54.1487 31.596ZM54.1487 30.864C54.7567 30.864 55.2447 30.68 55.6127 30.312C55.9807 29.944 56.1647 29.456 56.1647 28.848V25.776C56.1647 25.168 55.9807 24.68 55.6127 24.312C55.2447 23.936 54.7567 23.748 54.1487 23.748C53.5487 23.748 53.0647 23.936 52.6967 24.312C52.3287 24.68 52.1447 25.168 52.1447 25.776V28.848C52.1447 29.456 52.3287 29.944 52.6967 30.312C53.0647 30.68 53.5487 30.864 54.1487 30.864ZM63.5696 26.94C63.6896 27.324 63.7496 27.832 63.7496 28.464C63.7496 29.104 63.6976 29.6 63.5936 29.952C63.4496 30.464 63.1856 30.868 62.8016 31.164C62.4256 31.452 61.9496 31.596 61.3736 31.596C61.0616 31.596 60.7736 31.536 60.5096 31.416C60.2456 31.288 60.0256 31.108 59.8496 30.876C59.8336 30.86 59.8176 30.856 59.8016 30.864C59.7936 30.864 59.7896 30.872 59.7896 30.888V33.708C59.7896 33.788 59.7496 33.828 59.6696 33.828H59.0576C58.9776 33.828 58.9376 33.788 58.9376 33.708V25.548C58.9376 25.468 58.9776 25.428 59.0576 25.428H59.6696C59.7496 25.428 59.7896 25.468 59.7896 25.548V26.052C59.7896 26.068 59.7936 26.08 59.8016 26.088C59.8176 26.088 59.8336 26.08 59.8496 26.064C60.0256 25.832 60.2416 25.652 60.4976 25.524C60.7616 25.396 61.0536 25.332 61.3736 25.332C61.9336 25.332 62.4016 25.476 62.7776 25.764C63.1616 26.052 63.4256 26.444 63.5696 26.94ZM62.6216 29.976C62.7096 29.8 62.7736 29.604 62.8136 29.388C62.8616 29.164 62.8856 28.856 62.8856 28.464C62.8856 28.088 62.8696 27.796 62.8376 27.588C62.8056 27.372 62.7496 27.18 62.6696 27.012C62.5736 26.724 62.4016 26.496 62.1536 26.328C61.9136 26.16 61.6256 26.076 61.2896 26.076C60.9696 26.076 60.7016 26.16 60.4856 26.328C60.2696 26.496 60.1096 26.72 60.0056 27C59.9336 27.16 59.8816 27.348 59.8496 27.564C59.8176 27.78 59.8016 28.08 59.8016 28.464C59.8016 28.848 59.8176 29.152 59.8496 29.376C59.8816 29.592 59.9376 29.784 60.0176 29.952C60.1136 30.224 60.2696 30.444 60.4856 30.612C60.7096 30.772 60.9736 30.852 61.2776 30.852C61.5976 30.852 61.8736 30.772 62.1056 30.612C62.3456 30.452 62.5176 30.24 62.6216 29.976ZM67.4666 31.56C67.0186 31.56 66.6186 31.488 66.2666 31.344C65.9226 31.2 65.6546 31.008 65.4626 30.768C65.2786 30.528 65.1866 30.26 65.1866 29.964V29.82C65.1866 29.74 65.2266 29.7 65.3066 29.7H65.8826C65.9626 29.7 66.0026 29.74 66.0026 29.82V29.916C66.0026 30.18 66.1386 30.412 66.4106 30.612C66.6906 30.804 67.0386 30.9 67.4546 30.9C67.8706 30.9 68.2066 30.808 68.4626 30.624C68.7186 30.432 68.8466 30.192 68.8466 29.904C68.8466 29.704 68.7786 29.54 68.6426 29.412C68.5146 29.284 68.3586 29.184 68.1746 29.112C67.9986 29.04 67.7226 28.948 67.3466 28.836C66.8986 28.708 66.5306 28.58 66.2426 28.452C65.9546 28.324 65.7106 28.148 65.5106 27.924C65.3186 27.692 65.2226 27.4 65.2226 27.048C65.2226 26.536 65.4226 26.128 65.8226 25.824C66.2226 25.52 66.7506 25.368 67.4066 25.368C67.8466 25.368 68.2346 25.44 68.5706 25.584C68.9146 25.728 69.1786 25.928 69.3626 26.184C69.5466 26.432 69.6386 26.712 69.6386 27.024V27.06C69.6386 27.14 69.5986 27.18 69.5186 27.18H68.9546C68.8746 27.18 68.8346 27.14 68.8346 27.06V27.024C68.8346 26.752 68.7026 26.524 68.4386 26.34C68.1826 26.156 67.8346 26.064 67.3946 26.064C66.9866 26.064 66.6586 26.148 66.4106 26.316C66.1626 26.476 66.0386 26.7 66.0386 26.988C66.0386 27.26 66.1586 27.468 66.3986 27.612C66.6386 27.756 67.0106 27.9 67.5146 28.044C67.9786 28.18 68.3546 28.308 68.6426 28.428C68.9306 28.548 69.1786 28.724 69.3866 28.956C69.5946 29.18 69.6986 29.476 69.6986 29.844C69.6986 30.364 69.4946 30.78 69.0866 31.092C68.6786 31.404 68.1386 31.56 67.4666 31.56ZM76.2463 31.596C75.3423 31.596 74.6263 31.392 74.0983 30.984C73.5783 30.576 73.3183 30.032 73.3183 29.352V28.98C73.3183 28.9 73.3583 28.86 73.4383 28.86H74.0263C74.1063 28.86 74.1463 28.9 74.1463 28.98V29.304C74.1463 29.768 74.3383 30.144 74.7223 30.432C75.1063 30.712 75.6383 30.852 76.3183 30.852C76.9343 30.852 77.4023 30.724 77.7223 30.468C78.0423 30.204 78.2023 29.856 78.2023 29.424C78.2023 29.144 78.1263 28.904 77.9743 28.704C77.8303 28.504 77.6023 28.316 77.2903 28.14C76.9863 27.964 76.5543 27.76 75.9943 27.528C75.3943 27.288 74.9263 27.08 74.5903 26.904C74.2623 26.72 73.9943 26.488 73.7863 26.208C73.5863 25.92 73.4863 25.56 73.4863 25.128C73.4863 24.456 73.7183 23.936 74.1823 23.568C74.6543 23.192 75.2983 23.004 76.1143 23.004C77.0023 23.004 77.7023 23.212 78.2143 23.628C78.7263 24.044 78.9823 24.596 78.9823 25.284V25.548C78.9823 25.628 78.9423 25.668 78.8623 25.668H78.2623C78.1823 25.668 78.1423 25.628 78.1423 25.548V25.332C78.1423 24.868 77.9583 24.488 77.5903 24.192C77.2303 23.896 76.7263 23.748 76.0783 23.748C75.5103 23.748 75.0743 23.864 74.7703 24.096C74.4663 24.328 74.3143 24.664 74.3143 25.104C74.3143 25.392 74.3863 25.632 74.5303 25.824C74.6823 26.008 74.8943 26.172 75.1663 26.316C75.4463 26.452 75.8743 26.632 76.4503 26.856C77.0343 27.096 77.5023 27.32 77.8543 27.528C78.2143 27.736 78.5023 27.992 78.7183 28.296C78.9423 28.592 79.0543 28.956 79.0543 29.388C79.0543 30.06 78.8063 30.596 78.3103 30.996C77.8143 31.396 77.1263 31.596 76.2463 31.596ZM84.3341 25.548C84.3341 25.468 84.3741 25.428 84.4541 25.428H85.0661C85.1461 25.428 85.1861 25.468 85.1861 25.548V31.38C85.1861 31.46 85.1461 31.5 85.0661 31.5H84.4541C84.3741 31.5 84.3341 31.46 84.3341 31.38V30.864C84.3341 30.848 84.3261 30.836 84.3101 30.828C84.2941 30.82 84.2821 30.824 84.2741 30.84C83.9381 31.336 83.4061 31.584 82.6781 31.584C82.2941 31.584 81.9381 31.508 81.6101 31.356C81.2901 31.196 81.0341 30.968 80.8421 30.672C80.6581 30.376 80.5661 30.02 80.5661 29.604V25.548C80.5661 25.468 80.6061 25.428 80.6861 25.428H81.2981C81.3781 25.428 81.4181 25.468 81.4181 25.548V29.352C81.4181 29.808 81.5461 30.172 81.8021 30.444C82.0581 30.708 82.4061 30.84 82.8461 30.84C83.3021 30.84 83.6621 30.704 83.9261 30.432C84.1981 30.16 84.3341 29.8 84.3341 29.352V25.548ZM91.8117 26.94C91.9317 27.324 91.9917 27.832 91.9917 28.464C91.9917 29.104 91.9397 29.6 91.8357 29.952C91.6917 30.464 91.4277 30.868 91.0437 31.164C90.6677 31.452 90.1917 31.596 89.6157 31.596C89.3037 31.596 89.0157 31.536 88.7517 31.416C88.4877 31.288 88.2677 31.108 88.0917 30.876C88.0757 30.86 88.0597 30.856 88.0437 30.864C88.0357 30.864 88.0317 30.872 88.0317 30.888V33.708C88.0317 33.788 87.9917 33.828 87.9117 33.828H87.2997C87.2197 33.828 87.1797 33.788 87.1797 33.708V25.548C87.1797 25.468 87.2197 25.428 87.2997 25.428H87.9117C87.9917 25.428 88.0317 25.468 88.0317 25.548V26.052C88.0317 26.068 88.0357 26.08 88.0437 26.088C88.0597 26.088 88.0757 26.08 88.0917 26.064C88.2677 25.832 88.4837 25.652 88.7397 25.524C89.0037 25.396 89.2957 25.332 89.6157 25.332C90.1757 25.332 90.6437 25.476 91.0197 25.764C91.4037 26.052 91.6677 26.444 91.8117 26.94ZM90.8637 29.976C90.9517 29.8 91.0157 29.604 91.0557 29.388C91.1037 29.164 91.1277 28.856 91.1277 28.464C91.1277 28.088 91.1117 27.796 91.0797 27.588C91.0477 27.372 90.9917 27.18 90.9117 27.012C90.8157 26.724 90.6437 26.496 90.3957 26.328C90.1557 26.16 89.8677 26.076 89.5317 26.076C89.2117 26.076 88.9437 26.16 88.7277 26.328C88.5117 26.496 88.3517 26.72 88.2477 27C88.1757 27.16 88.1237 27.348 88.0917 27.564C88.0597 27.78 88.0437 28.08 88.0437 28.464C88.0437 28.848 88.0597 29.152 88.0917 29.376C88.1237 29.592 88.1797 29.784 88.2597 29.952C88.3557 30.224 88.5117 30.444 88.7277 30.612C88.9517 30.772 89.2157 30.852 89.5197 30.852C89.8397 30.852 90.1157 30.772 90.3477 30.612C90.5877 30.452 90.7597 30.24 90.8637 29.976ZM98.4328 26.94C98.5528 27.324 98.6128 27.832 98.6128 28.464C98.6128 29.104 98.5608 29.6 98.4568 29.952C98.3128 30.464 98.0488 30.868 97.6648 31.164C97.2888 31.452 96.8128 31.596 96.2368 31.596C95.9248 31.596 95.6368 31.536 95.3728 31.416C95.1088 31.288 94.8888 31.108 94.7128 30.876C94.6968 30.86 94.6808 30.856 94.6648 30.864C94.6568 30.864 94.6528 30.872 94.6528 30.888V33.708C94.6528 33.788 94.6128 33.828 94.5328 33.828H93.9208C93.8408 33.828 93.8008 33.788 93.8008 33.708V25.548C93.8008 25.468 93.8408 25.428 93.9208 25.428H94.5328C94.6128 25.428 94.6528 25.468 94.6528 25.548V26.052C94.6528 26.068 94.6568 26.08 94.6648 26.088C94.6808 26.088 94.6968 26.08 94.7128 26.064C94.8888 25.832 95.1048 25.652 95.3608 25.524C95.6248 25.396 95.9168 25.332 96.2368 25.332C96.7968 25.332 97.2648 25.476 97.6408 25.764C98.0248 26.052 98.2888 26.444 98.4328 26.94ZM97.4848 29.976C97.5728 29.8 97.6368 29.604 97.6768 29.388C97.7248 29.164 97.7488 28.856 97.7488 28.464C97.7488 28.088 97.7328 27.796 97.7008 27.588C97.6688 27.372 97.6128 27.18 97.5328 27.012C97.4368 26.724 97.2648 26.496 97.0168 26.328C96.7768 26.16 96.4888 26.076 96.1528 26.076C95.8328 26.076 95.5648 26.16 95.3488 26.328C95.1328 26.496 94.9728 26.72 94.8688 27C94.7968 27.16 94.7448 27.348 94.7128 27.564C94.6808 27.78 94.6648 28.08 94.6648 28.464C94.6648 28.848 94.6808 29.152 94.7128 29.376C94.7448 29.592 94.8008 29.784 94.8808 29.952C94.9768 30.224 95.1328 30.444 95.3488 30.612C95.5728 30.772 95.8368 30.852 96.1408 30.852C96.4608 30.852 96.7368 30.772 96.9688 30.612C97.2088 30.452 97.3808 30.24 97.4848 29.976ZM102.572 31.596C101.996 31.596 101.5 31.448 101.084 31.152C100.668 30.856 100.38 30.448 100.22 29.928C100.108 29.56 100.052 29.068 100.052 28.452C100.052 27.836 100.108 27.348 100.22 26.988C100.372 26.476 100.656 26.072 101.072 25.776C101.488 25.48 101.992 25.332 102.584 25.332C103.152 25.332 103.64 25.48 104.048 25.776C104.464 26.072 104.748 26.472 104.9 26.976C105.012 27.32 105.068 27.812 105.068 28.452C105.068 29.1 105.012 29.592 104.9 29.928C104.748 30.448 104.464 30.856 104.048 31.152C103.64 31.448 103.148 31.596 102.572 31.596ZM102.572 30.852C102.956 30.852 103.284 30.748 103.556 30.54C103.828 30.324 104.012 30.036 104.108 29.676C104.18 29.388 104.216 28.984 104.216 28.464C104.216 27.936 104.184 27.532 104.12 27.252C104.024 26.892 103.836 26.608 103.556 26.4C103.284 26.184 102.952 26.076 102.56 26.076C102.168 26.076 101.836 26.184 101.564 26.4C101.292 26.608 101.108 26.892 101.012 27.252C100.948 27.532 100.916 27.936 100.916 28.464C100.916 28.992 100.948 29.396 101.012 29.676C101.1 30.036 101.28 30.324 101.552 30.54C101.832 30.748 102.172 30.852 102.572 30.852ZM109.243 25.368C109.507 25.368 109.735 25.42 109.927 25.524C109.991 25.556 110.015 25.608 109.999 25.68L109.867 26.268C109.843 26.348 109.791 26.372 109.711 26.34C109.575 26.284 109.419 26.256 109.243 26.256L109.087 26.268C108.671 26.284 108.327 26.44 108.055 26.736C107.783 27.024 107.647 27.392 107.647 27.84V31.38C107.647 31.46 107.607 31.5 107.527 31.5H106.915C106.835 31.5 106.795 31.46 106.795 31.38V25.548C106.795 25.468 106.835 25.428 106.915 25.428H107.527C107.607 25.428 107.647 25.468 107.647 25.548V26.28C107.647 26.304 107.651 26.32 107.659 26.328C107.675 26.328 107.687 26.32 107.695 26.304C107.863 26.008 108.075 25.78 108.331 25.62C108.595 25.452 108.899 25.368 109.243 25.368ZM114.054 26.016C114.054 26.096 114.014 26.136 113.934 26.136H112.578C112.546 26.136 112.53 26.152 112.53 26.184V29.724C112.53 30.108 112.614 30.38 112.782 30.54C112.958 30.692 113.23 30.768 113.598 30.768H113.898C113.978 30.768 114.018 30.808 114.018 30.888V31.38C114.018 31.46 113.978 31.5 113.898 31.5C113.802 31.508 113.654 31.512 113.454 31.512C112.878 31.512 112.442 31.404 112.146 31.188C111.85 30.972 111.702 30.572 111.702 29.988V26.184C111.702 26.152 111.686 26.136 111.654 26.136H110.922C110.842 26.136 110.802 26.096 110.802 26.016V25.548C110.802 25.468 110.842 25.428 110.922 25.428H111.654C111.686 25.428 111.702 25.412 111.702 25.38V23.988C111.702 23.908 111.742 23.868 111.822 23.868H112.41C112.49 23.868 112.53 23.908 112.53 23.988V25.38C112.53 25.412 112.546 25.428 112.578 25.428H113.934C114.014 25.428 114.054 25.468 114.054 25.548V26.016Z" fill="#7D858B"/>
<defs>
<clipPath id="clip0_548_34">
<rect width="38" height="38" fill="white" transform="translate(0.0263672)"/>
</clipPath>
</defs>
</svg>
